<?xml version="1.0" encoding="UTF-8" standalone="no"?>
<!-- Created with Inkscape (http://www.inkscape.org/) -->

<svg
   width="83.365234mm"
   height="83.364235mm"
   viewBox="0 0 83.365231 83.364233"
   version="1.1"
   id="svg1"
   xml:space="preserve"
   inkscape:version="1.4.2 (ebf0e940d0, 2025-05-08)"
   sodipodi:docname="logo.svg"
   inkscape:export-filename="logo.png"
   inkscape:export-xdpi="96"
   inkscape:export-ydpi="96"
   xmlns:inkscape="http://www.inkscape.org/namespaces/inkscape"
   xmlns:sodipodi="http://sodipodi.sourceforge.net/DTD/sodipodi-0.dtd"
   xmlns="http://www.w3.org/2000/svg"
   xmlns:svg="http://www.w3.org/2000/svg"><sodipodi:namedview
     id="namedview1"
     pagecolor="#ffffff"
     bordercolor="#000000"
     borderopacity="0.25"
     inkscape:showpageshadow="2"
     inkscape:pageopacity="0.0"
     inkscape:pagecheckerboard="0"
     inkscape:deskcolor="#d1d1d1"
     inkscape:document-units="mm"
     inkscape:zoom="0.54740759"
     inkscape:cx="-222.86867"
     inkscape:cy="94.079807"
     inkscape:window-width="1896"
     inkscape:window-height="1030"
     inkscape:window-x="0"
     inkscape:window-y="0"
     inkscape:window-maximized="1"
     inkscape:current-layer="layer2" /><defs
     id="defs1" /><g
     inkscape:groupmode="layer"
     id="layer2"
     inkscape:label="Capa 2"
     transform="translate(-54.617286,-76.850871)"><g
       id="layer2-7"
       transform="matrix(0.87446808,0,0,0.87446808,14.956285,74.241698)"
       style="opacity:1;fill:#ff0763;fill-opacity:1"><path
         id="path23"
         style="opacity:1;fill:#ff0763;fill-opacity:1;stroke-width:0.264583"
         d="M 92.738637,4.6110521 A 45.923032,45.141363 0 0 0 46.815552,49.752906 45.923032,45.141363 0 0 0 92.738637,94.894168 45.923032,45.141363 0 0 0 138.66172,49.752906 45.923032,45.141363 0 0 0 135.33528,32.884914 l -3.4919,8.499591 a 40.158226,39.474682 0 0 1 0.93487,8.469453 A 40.158226,39.474682 0 0 1 92.620448,89.328629 40.158226,39.474682 0 0 1 52.462051,49.853958 40.158226,39.474682 0 0 1 92.620448,10.379286 40.158226,39.474682 0 0 1 120.9995,21.92521 l 6.35504,-1.836073 A 45.923032,45.141363 0 0 0 92.738637,4.6110521 Z" /></g><path
       style="opacity:1;fill:#ff0763;fill-opacity:1;stroke-width:0.264583"
       d="m 72.2999,136.20454 29.39241,-19.13924 24.26582,9.56962 -29.734179,20.50633 z"
       id="path2" /><path
       id="path4"
       style="opacity:1;fill:#ff0763;fill-opacity:1;stroke-width:0.264583"
       d="m 100.58181,88.014591 -29.905158,19.908349 0.683162,27.42726 0.768945,-0.42736 28.709371,-18.96835 z m -1.367359,3.24683 -0.17105,22.898859 -25.547283,16.66152 -0.341581,-22.04465 z" /><g
       id="layer2-6"
       transform="matrix(0.68041238,0,0,0.68041238,25.051461,24.794478)"
       style="opacity:1;fill:#ff0763;fill-opacity:1"><path
         style="opacity:1;fill:#ff0763;fill-opacity:1;stroke-width:0.264583"
         d="m 78.863922,129.78797 v 7.17722 l 8.287975,-5.38291 v -8.11709 z"
         id="path5-2" /></g><g
       id="layer2-6-6"
       transform="matrix(0.68041238,0,0,0.68041238,30.775695,26.111481)"
       style="opacity:1;fill:#ff0763;fill-opacity:1"><path
         style="opacity:1;fill:#ff0763;fill-opacity:1;stroke-width:0.264583"
         d="m 78.863922,129.78797 v 7.17722 l 8.287975,-5.38291 v -8.11709 z"
         id="path5-2-2" /></g><path
       style="opacity:1;fill:#ff0763;fill-opacity:1;stroke-width:0.264583"
       d="m 112.45814,99.122252 8.37342,4.784818 4.10126,10.25316 11.1076,-22.044298 z"
       id="path7" /><g
       id="layer2-3"
       transform="translate(4.3289654,65.666536)"><g
         id="layer2-6-6-7"
         transform="matrix(0.68041238,0,0,0.68041238,31.956807,-48.403183)"
         style="opacity:1;fill:#ff0763;fill-opacity:1"><path
           style="opacity:1;fill:#ff0763;fill-opacity:1;stroke-width:0.264583"
           d="m 78.863922,129.78797 v 7.17722 l 8.287975,-5.38291 v -8.11709 z"
           id="path5-2-2-5" /></g></g></g></svg>
